<?xml version="1.0" standalone="no"?>
<!DOCTYPE svg PUBLIC "-//W3C//DTD SVG 20010904//EN"
 "http://www.w3.org/TR/2001/REC-SVG-20010904/DTD/svg10.dtd">
<svg version="1.0" xmlns="http://www.w3.org/2000/svg"
 width="390.000000pt" height="390.000000pt" viewBox="0 0 390.000000 390.000000"
 preserveAspectRatio="xMidYMid meet">

<g transform="translate(0.000000,390.000000) scale(0.100000,-0.100000)"
fill="#000000" stroke="none">
<path d="M1746 3889 c-446 -47 -856 -245 -1176 -568 -236 -237 -391 -495 -486
-809 -62 -204 -77 -317 -77 -562 0 -245 15 -358 78 -564 94 -310 251 -572 485
-807 592 -597 1482 -748 2235 -379 561 274 953 797 1067 1420 30 165 30 495 0
660 -186 1017 -1109 1716 -2126 1609z m489 -264 c345 -60 657 -221 905 -465
678 -668 678 -1751 0 -2420 -668 -659 -1739 -650 -2400 20 -244 248 -402 554
-466 905 -25 139 -25 431 0 570 64 351 222 657 466 905 275 278 629 452 1020
500 104 12 367 4 475 -15z"/>
<path d="M1225 3041 c-101 -25 -175 -114 -175 -211 0 -125 127 -234 251 -214
58 10 128 60 157 114 34 65 29 162 -13 222 -47 66 -147 106 -220 89z"/>
<path d="M2289 2466 c-75 -21 -148 -67 -200 -125 l-49 -55 0 82 0 82 -175 0
-175 0 0 -600 0 -600 184 0 185 0 3 368 c3 350 4 369 24 412 39 82 101 120
196 120 88 0 153 -46 179 -128 8 -24 13 -161 16 -404 l5 -368 184 0 184 0 0
378 c0 426 -10 533 -59 637 -39 83 -82 129 -154 165 -102 49 -245 64 -348 36z"/>
<path d="M1080 1850 l0 -600 185 0 185 0 0 600 0 600 -185 0 -185 0 0 -600z"/>
</g>
</svg>
